
<svg width="123" height="80" viewBox="0 0 123 80" fill="none" xmlns="http://www.w3.org/2000/svg">
<path d="M89.9558 44.258H83.6675L93.4163 63.7032C95.4149 63.4523 97.9852 62.8479 100.765 61.8115L89.9558 44.258Z" fill="#272B4B"/>
<path d="M67.3687 7.57779V11.754L81.9526 40.8389V31.2625L67.3687 7.57779Z" fill="#272B4B"/>
<path d="M122.148 29.4581C119.702 1.54261 93.4164 0 93.4164 0H67.3687V7.5778L81.9526 31.2603V19.7333H93.3444C93.3444 19.7333 100.889 20.6038 102.268 28.3671V34.9696C102.268 34.9696 102.05 42.5147 93.9968 44.2558H89.9559L100.765 61.8072C110.896 58.0303 123.819 48.5084 122.148 29.4537V29.4581Z" fill="#2D3768"/>
<path d="M0.0634766 0.290192V16.2531H23.2093V10.9576C23.2093 10.9576 21.4681 0.292374 11.0931 0.292374H0.0656573L0.0634766 0.290192Z" fill="#2D3768"/>
<path d="M23.2068 63.7032V19.8816H0.0610352V53.038C0.0610352 53.038 1.80221 63.7032 12.1772 63.7032H23.2046H23.2068Z" fill="#2D3768"/>
<path d="M38.6616 0C28.2866 0 26.5454 10.6652 26.5454 10.6652V63.7033H37.5728C47.9478 63.7033 49.689 53.038 49.689 53.038V0H38.6616Z" fill="#C4292C"/>
<path d="M62.0997 6.67447C62.0997 6.67447 60.3979 3.04594 55.7809 1.13895L49.9028 34.2932L61.6634 57.1706C61.6634 57.1706 64.6373 63.3367 68.7742 63.3367H90.3949L62.0997 6.67447Z" fill="#C4292C"/>
<path d="M55.4863 2.79284V2.78411L55.7787 1.14331C54.1357 0.464733 52.1283 0.00216675 49.689 0.00216675V33.8852L49.9006 34.2975L55.4841 2.79502L55.4863 2.79284Z" fill="#9C2529"/>
<path d="M0 78.4705V71.6149H1.38333V78.4705H0Z" fill="#2D3768"/>
<path d="M2.71849 78.4705V71.6149H4.06473L6.87068 76.1926V71.6149H8.15583V78.4705H6.76595L4.00146 73.9997V78.4705H2.71631H2.71849Z" fill="#2D3768"/>
<path d="M9.60254 78.4705V71.6149H11.6754L12.9191 76.2908L14.1497 71.6149H16.2268V78.4705H14.9417V73.0746L13.5802 78.4705H12.247L10.8899 73.0746V78.4705H9.60472H9.60254Z" fill="#2D3768"/>
<path d="M17.5557 78.4705V71.6149H18.939V78.4705H17.5557Z" fill="#2D3768"/>
<path d="M23.4493 75.9504V74.7961H26.432V77.5279C26.1418 77.8094 25.7207 78.0559 25.1708 78.2698C24.621 78.4836 24.0624 78.5905 23.4995 78.5905C22.7816 78.5905 22.1576 78.44 21.6252 78.1388C21.0928 77.8377 20.6913 77.4079 20.423 76.8471C20.1546 76.2864 20.0215 75.6776 20.0215 75.0209C20.0215 74.3074 20.172 73.6725 20.471 73.1183C20.7699 72.564 21.2084 72.1386 21.7845 71.8418C22.223 71.6149 22.7707 71.4993 23.4253 71.4993C24.2762 71.4993 24.9417 71.6782 25.4195 72.0338C25.8974 72.3917 26.205 72.8848 26.3425 73.5132L24.9679 73.7706C24.8719 73.4346 24.6886 73.1684 24.4224 72.9742C24.1562 72.7801 23.8224 72.6819 23.4231 72.6819C22.8187 72.6819 22.3365 72.8739 21.9808 73.2579C21.623 73.6419 21.4463 74.2092 21.4463 74.9642C21.4463 75.778 21.6274 76.3889 21.9896 76.7948C22.3518 77.2006 22.8252 77.4057 23.4122 77.4057C23.7024 77.4057 23.9926 77.349 24.2849 77.2355C24.5773 77.1221 24.8261 76.9846 25.0355 76.821V75.9504H23.4493Z" fill="#2D3768"/>
<path d="M27.7146 78.4705V71.6149H30.6274C31.3606 71.6149 31.893 71.676 32.2246 71.8004C32.5563 71.9226 32.8225 72.1429 33.021 72.4571C33.2196 72.7713 33.3199 73.1313 33.3199 73.5372C33.3199 74.0521 33.1694 74.4754 32.8661 74.8114C32.5628 75.1452 32.1112 75.3569 31.5089 75.4442C31.8079 75.6187 32.0544 75.8107 32.2508 76.0202C32.445 76.2297 32.709 76.6006 33.0385 77.133L33.8763 78.4705H32.2202L31.2187 76.9781C30.8631 76.4435 30.6209 76.1097 30.49 75.97C30.3591 75.8325 30.2194 75.7365 30.0732 75.6842C29.927 75.6318 29.6936 75.6078 29.3772 75.6078H29.0957V78.4705H27.7124H27.7146ZM29.0979 74.5147H30.1212C30.7845 74.5147 31.1991 74.4863 31.3649 74.4296C31.5308 74.3728 31.6595 74.2768 31.7533 74.1394C31.8471 74.0019 31.893 73.8317 31.893 73.6244C31.893 73.3932 31.8319 73.2077 31.7075 73.0659C31.5831 72.9241 31.4108 72.8346 31.186 72.7975C31.0747 72.7822 30.7365 72.7735 30.1758 72.7735H29.0957V74.5125L29.0979 74.5147Z" fill="#2D3768"/>
<path d="M40.8086 78.4705H39.303L38.7052 76.9126H35.9647L35.3996 78.4705H33.9312L36.6018 71.6149H38.0659L40.8107 78.4705H40.8086ZM38.2601 75.7584L37.3153 73.2142L36.3902 75.7584H38.2601Z" fill="#2D3768"/>
<path d="M45.9293 75.9504L47.2712 76.3759C47.0661 77.1243 46.7236 77.6806 46.2457 78.0428C45.7679 78.405 45.1591 78.5883 44.4238 78.5883C43.514 78.5883 42.7656 78.2763 42.1786 77.6566C41.5917 77.0348 41.2993 76.1838 41.2993 75.106C41.2993 73.9648 41.5939 73.079 42.183 72.4462C42.7721 71.8135 43.5467 71.4993 44.5067 71.4993C45.3446 71.4993 46.0275 71.748 46.5512 72.2433C46.8632 72.5357 47.0967 72.9568 47.2538 73.5066L45.8835 73.8339C45.8028 73.4783 45.6326 73.1968 45.3751 72.9917C45.1177 72.7866 44.8057 72.6841 44.4369 72.6841C43.9285 72.6841 43.5161 72.8673 43.1998 73.2317C42.8834 73.5961 42.7241 74.1874 42.7241 75.0034C42.7241 75.8696 42.879 76.4871 43.191 76.8559C43.503 77.2246 43.9089 77.4079 44.4064 77.4079C44.7751 77.4079 45.0915 77.2923 45.3555 77.0566C45.6195 76.8231 45.8115 76.4544 45.925 75.9526L45.9293 75.9504Z" fill="#2D3768"/>
<path d="M48.4165 78.4705V71.6149H49.7998V78.4705H48.4165Z" fill="#2D3768"/>
<path d="M50.841 75.0842C50.841 74.3859 50.9458 73.8012 51.1552 73.3255C51.3102 72.9764 51.524 72.6622 51.7945 72.3851C52.0651 72.108 52.3597 71.9007 52.6804 71.7676C53.1081 71.5865 53.599 71.4971 54.1576 71.4971C55.1678 71.4971 55.9751 71.8113 56.5817 72.4375C57.1882 73.0637 57.4915 73.9365 57.4915 75.0514C57.4915 76.1664 57.1904 77.0239 56.5882 77.6501C55.986 78.2763 55.1831 78.5883 54.175 78.5883C53.167 78.5883 52.3444 78.2763 51.7422 77.6566C51.14 77.0348 50.8389 76.1773 50.8389 75.0863L50.841 75.0842ZM52.268 75.0383C52.268 75.8151 52.4469 76.4042 52.807 76.8035C53.1648 77.205 53.6208 77.4035 54.1728 77.4035C54.7249 77.4035 55.1765 77.205 55.5322 76.8079C55.8856 76.4108 56.0624 75.8129 56.0624 75.0187C56.0624 74.2245 55.89 73.6463 55.5453 73.2601C55.2005 72.8739 54.7423 72.6797 54.1728 72.6797C53.6034 72.6797 53.143 72.876 52.7939 73.2666C52.4448 73.6594 52.2702 74.2485 52.2702 75.0362L52.268 75.0383ZM53.3153 71.2222L53.9612 69.8235H55.434L54.1488 71.2222H53.3153Z" fill="#2D3768"/>
<path d="M58.5847 78.4705V71.6149H59.9309L62.7369 76.1926V71.6149H64.022V78.4705H62.6322L59.8677 73.9997V78.4705H58.5825H58.5847Z" fill="#2D3768"/>
<path d="M73.9756 78.4705H72.47L71.8722 76.9126H69.1317L68.5666 78.4705H67.0981L69.7688 71.6149H71.2329L73.9777 78.4705H73.9756ZM71.4271 75.7584L70.4823 73.2142L69.5572 75.7584H71.4271Z" fill="#2D3768"/>
<path d="M74.7483 78.4705V71.6716H76.1316V77.3162H79.5725V78.4705H74.7461H74.7483Z" fill="#2D3768"/>
<path d="M83.0439 71.6149H85.575C86.1444 71.6149 86.5808 71.6585 86.8798 71.7458C87.2812 71.8636 87.626 72.0753 87.914 72.3764C88.1998 72.6797 88.418 73.0484 88.5686 73.487C88.7169 73.9256 88.7933 74.4645 88.7933 75.1082C88.7933 75.6733 88.7235 76.1577 88.5838 76.5679C88.4115 77.0675 88.1671 77.4712 87.8485 77.7788C87.6085 78.0123 87.2834 78.1956 86.8754 78.3265C86.5699 78.4225 86.1619 78.4705 85.6492 78.4705H83.0439V71.6149ZM84.4273 72.7735V77.3141H85.4615C85.8477 77.3141 86.127 77.2922 86.2994 77.2486C86.5241 77.1919 86.7096 77.0981 86.8579 76.9628C87.0063 76.8275 87.1263 76.6071 87.2201 76.3017C87.314 75.994 87.3598 75.5773 87.3598 75.0471C87.3598 74.5169 87.314 74.111 87.2201 73.8274C87.1263 73.5437 86.9954 73.3212 86.8274 73.1619C86.6594 73.0026 86.4455 72.8957 86.1859 72.839C85.9917 72.7953 85.6142 72.7735 85.0491 72.7735H84.4273Z" fill="#2D3768"/>
<path d="M89.7642 71.2222L90.41 69.8235H91.8828L90.5977 71.2222H89.7642ZM89.9234 78.4705V71.6149H91.3068V78.4705H89.9234Z" fill="#2D3768"/>
<path d="M98.8081 78.4705H97.3025L96.7047 76.9126H93.9642L93.3991 78.4705H91.9307L94.6013 71.6149H96.0654L98.8103 78.4705H98.8081ZM96.2596 75.7584L95.3148 73.2142L94.3897 75.7584H96.2596Z" fill="#2D3768"/>
<path d="M99.5 77.157H100.813V78.0974C100.813 78.477 100.781 78.7781 100.715 78.9963C100.65 79.2167 100.525 79.4131 100.344 79.5876C100.163 79.7622 99.9298 79.8997 99.6505 80L99.3931 79.4567C99.6593 79.3694 99.8469 79.2494 99.9582 79.0967C100.069 78.944 100.131 78.7345 100.135 78.4705H99.5V77.157Z" fill="#2D3768"/>
<path d="M104.902 78.4705V71.6716H106.285V77.3162H109.726V78.4705H104.9H104.902Z" fill="#2D3768"/>
<path d="M110.752 78.4705V71.6716H112.136V77.3162H115.576V78.4705H110.75H110.752Z" fill="#2D3768"/>
<path d="M120.952 75.9504L122.294 76.3759C122.089 77.1243 121.747 77.6806 121.269 78.0428C120.791 78.405 120.182 78.5883 119.447 78.5883C118.537 78.5883 117.789 78.2763 117.202 77.6566C116.615 77.0348 116.322 76.1838 116.322 75.106C116.322 73.9648 116.617 73.079 117.206 72.4462C117.795 71.8135 118.57 71.4993 119.53 71.4993C120.368 71.4993 121.05 71.748 121.574 72.2433C121.886 72.5357 122.12 72.9568 122.277 73.5066L120.906 73.8339C120.826 73.4783 120.656 73.1968 120.398 72.9917C120.141 72.7866 119.829 72.6841 119.46 72.6841C118.951 72.6841 118.539 72.8673 118.223 73.2317C117.906 73.5961 117.747 74.1874 117.747 75.0034C117.747 75.8696 117.902 76.4871 118.214 76.8559C118.526 77.2246 118.932 77.4079 119.429 77.4079C119.798 77.4079 120.114 77.2923 120.378 77.0566C120.642 76.8231 120.834 76.4544 120.948 75.9526L120.952 75.9504Z" fill="#2D3768"/>
</svg>
